$MeshFormat
4.1 0 8
$EndMeshFormat
$PhysicalNames
4
1 1 "Inlet"
1 2 "Walls"
1 3 "Cylinder"
2 1 "Fluid"
$EndPhysicalNames
$Entities
9 8 1 0
1 0 0 0 0 
2 2.2 0 0 0 
3 2.2 0.41 0 0 
4 0 0.41 0 0 
5 0.2 0.2 0 0 
6 0.25 0.2 0 0 
7 0.15 0.2 0 0 
8 0.2 0.25 0 0 
9 0.2 0.15 0 0 
1 0 0 0 2.2 0 0 1 2 2 1 -2 
2 2.2 0 0 2.2 0.41 0 1 1 2 2 -3 
3 0 0.41 0 2.2 0.41 0 1 2 2 3 -4 
4 0 0 0 0 0.41 0 1 0 2 4 -1 
5 0.2 0.2 0 0.25 0.25 0 1 3 2 6 -8 
6 0.15 0.2 0 0.2 0.25 0 1 3 2 8 -7 
7 0.15 0.15 0 0.2 0.2 0 1 3 2 7 -9 
8 0.2 0.15 0 0.25 0.2 0 1 3 2 9 -6 
1 0 0 0 2.2 0.41 0 1 0 8 1 2 3 4 -8 -7 -6 -5 
$EndEntities
$Nodes
17 352 1 352
0 1 0 1
1
0 0 0
0 2 0 1
2
2.2 0 0
0 3 0 1
3
2.2 0.41 0
0 4 0 1
4
0 0.41 0
0 6 0 1
5
0.25 0.2 0
0 7 0 1
6
0.15 0.2 0
0 8 0 1
7
0.2 0.25 0
0 9 0 1
8
0.2 0.15 0
1 1 0 27
9
10
11
12
13
14
15
16
17
18
19
20
21
22
23
24
25
26
27
28
29
30
31
32
33
34
35
0.05245741826657682 0 0
0.1001688690941964 0 0
0.1445981496637814 0 0
0.1871759833045682 0 0
0.2293218716985364 0 0
0.2724535060096132 0 0
0.3179930849673415 0 0
0.3673808398042294 0 0
0.4221025966303664 0 0
0.4837298272914662 0 0
0.5539682881792006 0 0
0.6347114717936256 0 0
0.7279121605001652 0 0
0.8260513497997186 0 0
0.9241905390992745 0 0
1.022329728398873 0 0
1.120468917698596 0 0
1.218608106998712 0 0
1.316747296298828 0 0
1.414886485598958 0 0
1.513025674899103 0 0
1.611164864199219 0 0
1.709304053499311 0 0
1.80744324279945 0 0
1.905582432099566 0 0
2.003721621399657 0 0
2.101860810699828 0 0
1 2 0 4
36
37
38
39
2.2 0.08199999999981657 0
2.2 0.1639999999995688 0
2.2 0.2459999999995603 0
2.2 0.327999999999785 0
1 3 0 27
40
41
42
43
44
45
46
47
48
49
50
51
52
53
54
55
56
57
58
59
60
61
62
63
64
65
66
2.102952846749599 0.41 0
2.005905693499371 0.41 0
1.908858540249053 0.41 0
1.811811386998853 0.41 0
1.714764233748653 0.41 0
1.617717080498626 0.41 0
1.52066992724849 0.41 0
1.423622773998356 0.41 0
1.326575620748243 0.41 0
1.229528467498064 0.41 0
1.132481314247844 0.41 0
1.035434160997328 0.41 0
0.9383870077466276 0.41 0
0.8413398544959374 0.41 0
0.7442927012452469 0.41 0
0.6499600098787548 0.41 0
0.5673733391792326 0.41 0
0.4953918236062251 0.41 0
0.4321203589124822 0.41 0
0.3758509977878361 0.41 0
0.3250108499257593 0.41 0
0.278115655769454 0.41 0
0.2337302001168049 0.41 0
0.190440731119041 0.41 0
0.1468398817589662 0.41 0
0.1015185875719542 0.41 0
0.05305622353017814 0.41 0
1 4 0 8
67
68
69
70
71
72
73
74
0 0.3577284471362187 0
0 0.3102712184910494 0
0 0.2662549886924483 0
0 0.2243428074368956 0
0 0.1832115139434126 0
0 0.1415411996147119 0
0 0.09800979881349708 0
0 0.05128420997375222 0
1 5 0 3
75
76
77
0.2461939765994939 0.2191341716811941 0
0.2353553389914487 0.2353553391272061 0
0.2191341716117397 0.2461939766282629 0
1 6 0 3
78
79
80
0.1808658283188059 0.2461939765994939 0
0.1646446608727939 0.2353553389914487 0
0.1538060233717372 0.2191341716117397 0
1 7 0 3
81
82
83
0.1538060234005061 0.1808658283188059 0
0.1646446610085514 0.1646446608727939 0
0.1808658283882603 0.1538060233717372 0
1 8 0 3
84
85
86
0.2191341716811941 0.1538060234005061 0
0.2353553391272061 0.1646446610085514 0
0.2461939766282629 0.1808658283882603 0
2 1 0 266
87
88
89
90
91
92
93
94
95
96
97
98
99
100
101
102
103
104
105
106
107
108
109
110
111
112
113
114
115
116
117
118
119
120
121
122
123
124
125
126
127
128
129
130
131
132
133
134
135
136
137
138
139
140
141
142
143
144
145
146
147
148
149
150
151
152
153
154
155
156
157
158
159
160
161
162
163
164
165
166
167
168
169
170
171
172
173
174
175
176
177
178
179
180
181
182
183
184
185
186
187
188
189
190
191
192
193
194
195
196
197
198
199
200
201
202
203
204
205
206
207
208
209
210
211
212
213
214
215
216
217
218
219
220
221
222
223
224
225
226
227
228
229
230
231
232
233
234
235
236
237
238
239
240
241
242
243
244
245
246
247
248
249
250
251
252
253
254
255
256
257
258
259
260
261
262
263
264
265
266
267
268
269
270
271
272
273
274
275
276
277
278
279
280
281
282
283
284
285
286
287
288
289
290
291
292
293
294
295
296
297
298
299
300
301
302
303
304
305
306
307
308
309
310
311
312
313
314
315
316
317
318
319
320
321
322
323
324
325
326
327
328
329
330
331
332
333
334
335
336
337
338
339
340
341
342
343
344
345
346
347
348
349
350
351
352
0.2649671447077011 0.2127603118817291 0
0.4637560912593537 0.3582373040259521 0
0.2549615616388432 0.163084227510915 0
0.3912995973803172 0.03742617397497314 0
0.163368709112381 0.2548226008415098 0
0.235733486874232 0.255104322050762 0
0.1423753881278617 0.1658117495909823 0
0.5169679542119114 0.05444169865464544 0
0.35097652835492 0.3672864659029706 0
0.1358884895652915 0.2143331192989855 0
0.1834280102552769 0.1350270601002791 0
0.6050338267559431 0.3431595488070915 0
0.0337075665461304 0.2859514146532019 0
0.2979255393497911 0.03889945949175625 0
2.128985916889787 0.2049999999995643 0
0.1223835093789889 0.03767518560807803 0
0.1194179214592066 0.3721128373212536 0
0.03842694825017379 0.1211677453333811 0
0.2111524149097389 0.3784669945357356 0
0.7853892350275731 0.08701151993976414 0
1.860868494417358 0.326103095571959 0
1.666240657123639 0.3259546999205151 0
1.472146350623423 0.3259546999204313 0
1.277029224773801 0.3247398408813063 0
1.096449339389173 0.3321548593411066 0
0.03080644870105856 0.2068647089688002 0
0.2120417497950324 0.03155120281629074 0
0.9064194208440669 0.3328200024924117 0
1.945353572342473 0.09378375953353174 0
1.754739630221695 0.08066195746692284 0
1.562240906323265 0.084973928391486 0
1.366247332425016 0.08504697999540495 0
1.169953429677737 0.08520024533995219 0
0.9727988447897176 0.08501112683713015 0
0.1807641815633326 0.2655114773775153 0
0.1611022687757981 0.2757995528905423 0
0.1420244361930064 0.2622104740067209 0
0.17955579654635 0.2886867926851901 0
0.1397440053996609 0.2871471390902994 0
0.1190238343741322 0.2725831682130147 0
0.1154348049489413 0.3000092040876872 0
0.2519578694994997 0.2473713135354661 0
0.2550331433878521 0.2648341994283751 0
0.2736450904730776 0.2520642840853407 0
0.2753844816397815 0.2791285182436916 0
0.2979852913479094 0.2642145472251504 0
0.2346298007421547 0.2743022097354283 0
0.3003052760718039 0.2919550687727214 0
0.3253463564697358 0.2749084371039634 0
0.3203453936478765 0.2435121731666496 0
0.3525331328242923 0.2569920558213505 0
0.3488154141868496 0.2224635087740766 0
0.3821682218692047 0.2368628659043806 0
0.3783212436482667 0.1985262627744703 0
0.4151704432570994 0.2150363604762749 0
0.3437018701631576 0.1873375130281093 0
0.4106752855391733 0.1719308463027606 0
0.4522979830910259 0.1904533443956299 0
0.2745505517832781 0.3086889646083976 0
0.4546943569595956 0.2344720328854539 0
0.4992700288139307 0.2092166485420202 0
0.3812598230364765 0.2681508434099372 0
0.49853451766023 0.2587744214918 0
0.5516020525038878 0.2321409243251764 0
0.2432985258321983 0.1469795011981669 0
0.2649527275629996 0.1448743271205649 0
0.2528781582405983 0.1254243847185136 0
0.2774898325124173 0.1236266632667973 0
0.2769667382541103 0.1634919615126845 0
0.263369183663095 0.1017826017698255 0
0.2364333407063647 0.1049124955194465 0
0.2915398450513726 0.0993424919811861 0
0.3040525252679359 0.123957988949176 0
0.3221307186860941 0.09818013503214811 0
0.33902750073813 0.1276613718583202 0
0.1345600582561919 0.1838351835713587 0
0.1227266721545333 0.1672480409222894 0
0.1306769574888279 0.1465843285798628 0
0.1120649328205647 0.1870833795349689 0
0.09834517316456057 0.1658872533493886 0
0.4462521527267923 0.1440886025785691 0
0.2462298729888838 0.07657320691260212 0
0.5460382987195509 0.1708520909951718 0
0.6070692835914477 0.1955531554951863 0
0.1443288167071078 0.3165071996807028 0
0.1657191820313397 0.1424440214114744 0
0.1669829715407254 0.1220983582267161 0
0.1873024812447364 0.1125079966663794 0
0.1685793563740437 0.09832097645844738 0
0.2199426404208462 0.08216193714125938 0
0.1461829690001941 0.1095073283074074 0
0.08703978934499554 0.1901907223519589 0
0.0704511163910331 0.1665823743175479 0
0.08500744347207292 0.1422967868131347 0
0.2128631987832693 0.1353323329920475 0
0.6018274381078329 0.1273384194243816 0
0.3016963138393258 0.3234238882757111 0
0.272909232116705 0.3445001556133586 0
0.246439846482913 0.3233415884586048 0
0.1031066687715703 0.2109481402558091 0
0.1228387736878674 0.2478286489250444 0
0.09844374304638689 0.2566131260391261 0
0.1991128333816249 0.2772238199506568 0
0.1991105600840075 0.3020653096679138 0
2.059260965115224 0.3266855980386844 0
0.4063585581188696 0.1299481425357358 0
0.4371108316897485 0.1037776663442082 0
0.6673389790956007 0.1541323334356195 0
0.6786197645337053 0.2351831615329086 0
0.1463443852423857 0.08437541948500336 0
0.1218171736936211 0.09712065488420576 0
0.1711359159009888 0.07021574701303773 0
0.3564746422490461 0.09442515465207107 0
0.08066568418018333 0.2165204474578538 0
0.2703833973140802 0.1965694725790358 0
0.2852357695253062 0.2086865188296795 0
0.1770551432317788 0.3138595344515377 0
0.7500913514964326 0.174297970642573 0
0.7511430942876877 0.2670980470544093 0
0.8250411418219549 0.2230556250843329 0
0.3362473313730179 0.06424175379259292 0
0.1998915119220767 0.328919357290172 0
0.1715831713368215 0.3398654056533653 0
0.1149984637292327 0.3322318631626141 0
0.08465822688208975 0.3144791052541214 0
0.08078798181512416 0.3499852563295348 0
0.3217612091072238 0.2102187831183549 0
0.3122373261348979 0.1792649190797267 0
0.04445013068665992 0.3260732655919644 0
0.2519652499829656 0.04001038377694019 0
0.0363387829095777 0.247275754783662 0
0.4044166195790508 0.3549041687770905 0
0.440134659896582 0.3209659885803969 0
0.3107565409690953 0.3604633048005568 0
0.3646754406034862 0.3255109924416035 0
0.5285943855653773 0.3538835259338728 0
0.08055113161141443 0.03557366212115201 0
0.0366552029663202 0.164964804794341 0
0.03621013069712962 0.07957686883292391 0
0.06999323224023785 0.09714872381179013 0
0.487287773965508 0.1135606194998281 0
0.2504836196340345 0.3731751198968718 0
0.6927824036060835 0.3235405778645345 0
0.1451773990923981 0.2366312907199199 0
0.1697250329118555 0.03585251195193956 0
0.3697937011759006 0.1566337271917796 0
0.2800652852719427 0.228882057600979 0
1.958524562605612 0.3282704805230885 0
1.905832659783271 0.2471468292454209 0
1.819312751708399 0.2446745859840384 0
1.86337849915927 0.1582136631082761 0
0.8753324312034469 0.08169669168374746 0
0.9118797511265849 0.1725593438428669 0
1.019715089385763 0.1682077832787071 0
0.9665780625131598 0.2514503274527123 0
2.056372509522765 0.08633039708563921 0
2.003710836775022 0.1669974779399295 0
1.071178140889416 0.08484912357526196 0
1.120561073575859 0.1670387399358727 0
1.219392328941929 0.1670099201956742 0
1.173173720487694 0.2555724860285027 0
1.659632735587725 0.08419368728890554 0
1.611159520431325 0.1672534069584144 0
1.513395140336587 0.1670833090096824 0
1.562412913081556 0.254411215993097 0
1.464232556617406 0.08453438998306613 0
1.415491749752946 0.1670397163235634 0
1.701368693300934 0.1638421515140206 0
1.317332055725365 0.166495647403747 0
1.366778306079218 0.2547969358830905 0
1.768290935224456 0.3282904924425008 0
1.268343094061597 0.08460686655205472 0
0.655772861906044 0.07502279510992892 0
0.06510233821745347 0.2671685947391565 0
0.1004640083473507 0.06747500855555331 0
2.133406016664829 0.284145471553149 0
2.132722205827506 0.1263103232018182 0
0.4482809880816575 0.05643370193599296 0
0.5862166234847787 0.05918428886811816 0
0.3341174790660862 0.1595840072676193 0
0.04319158826933533 0.3725743270514008 0
0.6149152883021717 0.2698792572858661 0
0.1684908396259129 0.3749253141827316 0
1.989026498681187 0.2483838569346536 0
0.216382554040125 0.2650655763608916 0
0.2325781174556001 0.1293223641137209 0
0.2117743032307173 0.1109217270938788 0
0.1933276651294363 0.08885636398356035 0
0.09111076895123894 0.28425941718085 0
0.2873836412831247 0.1848068710871401 0
0.3047499789522601 0.07005540364029818 0
0.2184458333402919 0.290104451246842 0
0.03918978153755871 0.03928662475571737 0
0.1257836246778226 0.1228328009355079 0
0.09718263925136675 0.1136083255741718 0
0.2759632783313947 0.0711105912621014 0
0.0603551837292335 0.1937110947116481 0
0.05920052265465281 0.1433983649203166 0
0.3554622664997921 0.2901707304101839 0
0.223350045601481 0.3142061325128118 0
0.2253634050240285 0.3453950601462892 0
1.002333268970631 0.3294841603443829 0
1.849980636011779 0.07678241812159083 0
1.066855841748542 0.2456693747954485 0
0.1437638425716563 0.3471285240001334 0
0.4856268337695462 0.312206127079894 0
1.270741127201601 0.2337229660784642 0
0.3297719925225555 0.3073216665987141 0
1.181732413279315 0.3464934372501831 0
1.655585974257457 0.232894409512908 0
1.567837385715147 0.3452641231668086 0
1.466044891974746 0.2338571754259729 0
1.373230455244609 0.3450982953369656 0
0.8076079485697062 0.3216700704874489 0
0.4890841702980961 0.1637152368042688 0
0.2262952755060397 0.0584937539685632 0
0.331365210634193 0.3373692402492292 0
0.1467685205052642 0.06037945975568423 0
0.5493844597297461 0.2934904079262404 0
0.3082115835562402 0.1517587364742843 0
0.2468333861396789 0.2935151520334501 0
0.4133610999995559 0.255667407615849 0
0.1593440489109822 0.2975545326662312 0
0.07554111013736363 0.2422061525481536 0
0.5379037097979462 0.1148487257077356 0
0.2869949346512809 0.1443887057770397 0
0.1040124168285588 0.2313901453678528 0
0.1994738992959677 0.06146957273147471 0
0.3011898666023977 0.2245440300531596 0
0.3978192831169998 0.08709407893280956 0
0.147050308063158 0.1317371634905405 0
0.1284501333851512 0.2296369251030077 0
0.1090447233034295 0.1403741471551041 0
0.3437583966138821 0.02912598679864357 0
0.8270890268515203 0.1455680748173494 0
0.07959446052915968 0.3829344841404378 0
0.2637896325263962 0.1804839012007125 0
0.2593475115833123 0.2300779582614097 0
1.735709954223131 0.2501997458835568 0
1.785760959166908 0.157618654879618 0
0.8835052649750945 0.2603110738719546 0
0.3714735549633187 0.1236121322277947 0
0.06528165688673825 0.06381217761542733 0
2.079173052766702 0.1661276396452914 0
0.05674144193148334 0.2213156316940235 0
2.070983447271186 0.2412223058859391 0
0.4489326313446687 0.2811092833740809 0
0.7166304984542617 0.1094817289314542 0
0.06400166623843007 0.2947033047519942 0
0.2937003950356182 0.2431604816932376 0
0.124962701152695 0.2005283128404347 0
0.1997588501525845 0.1257386793885764 0
2.13912396570593 0.3517662139183236 0
2.13819110521002 0.05892814405745479 0
0.1485567332848902 0.1486338176184257 0
1.935928272245645 0.1780097389119742 0
0.1254570245226486 0.07218467048470009 0
0.2844965067183407 0.3796154625306913 0
0.2494429919630001 0.3463811228943039 0
0.3024394499691586 0.1994904706120983 0
0.4011775058513731 0.2994970592298773 0
0.3665060391973088 0.0634751003187342 0
0.2954207615586643 0.1672002477789775 0
0.06996215717370081 0.1235239892905588 0
0.1952962685637157 0.3535144263616588 0
0.119040804591389 0.2159775772459746 0
$EndNodes
$Elements
9 704 1 704
1 1 1 28
1 1 9 
2 9 10 
3 10 11 
4 11 12 
5 12 13 
6 13 14 
7 14 15 
8 15 16 
9 16 17 
10 17 18 
11 18 19 
12 19 20 
13 20 21 
14 21 22 
15 22 23 
16 23 24 
17 24 25 
18 25 26 
19 26 27 
20 27 28 
21 28 29 
22 29 30 
23 30 31 
24 31 32 
25 32 33 
26 33 34 
27 34 35 
28 35 2 
1 2 1 5
29 2 36 
30 36 37 
31 37 38 
32 38 39 
33 39 3 
1 3 1 28
34 3 40 
35 40 41 
36 41 42 
37 42 43 
38 43 44 
39 44 45 
40 45 46 
41 46 47 
42 47 48 
43 48 49 
44 49 50 
45 50 51 
46 51 52 
47 52 53 
48 53 54 
49 54 55 
50 55 56 
51 56 57 
52 57 58 
53 58 59 
54 59 60 
55 60 61 
56 61 62 
57 62 63 
58 63 64 
59 64 65 
60 65 66 
61 66 4 
1 4 1 9
62 4 67 
63 67 68 
64 68 69 
65 69 70 
66 70 71 
67 71 72 
68 72 73 
69 73 74 
70 74 1 
1 5 1 4
71 5 75 
72 75 76 
73 76 77 
74 77 7 
1 6 1 4
75 7 78 
76 78 79 
77 79 80 
78 80 6 
1 7 1 4
79 6 81 
80 81 82 
81 82 83 
82 83 8 
1 8 1 4
83 8 84 
84 84 85 
85 85 86 
86 86 5 
2 1 2 618
87 171 203 209 
88 121 7 189 
89 272 181 273 
90 94 227 264 
91 195 229 268 
92 261 197 281 
93 151 84 272 
94 211 212 215 
95 211 215 335 
96 95 60 220 
97 168 216 282 
98 216 100 282 
99 286 278 307 
100 226 261 281 
101 4 67 267 
102 102 231 304 
103 288 241 290 
104 111 288 290 
105 229 98 268 
106 220 60 344 
107 189 7 271 
108 92 133 271 
109 84 181 272 
110 300 206 327 
111 54 229 300 
112 59 95 218 
113 102 11 231 
114 247 110 295 
115 91 123 230 
116 229 205 300 
117 110 247 293 
118 210 103 212 
119 57 88 222 
120 129 131 307 
121 256 109 299 
122 109 256 298 
123 66 4 267 
124 195 205 229 
125 278 133 307 
126 251 108 297 
127 108 251 296 
128 113 13 216 
129 218 95 221 
130 171 209 291 
131 85 84 151 
132 78 7 121 
133 159 161 306 
134 72 104 224 
135 133 129 307 
136 273 181 338 
137 163 166 319 
138 70 112 217 
139 114 300 327 
140 140 142 232 
141 164 163 319 
142 259 21 334 
143 198 231 314 
144 123 187 230 
145 18 94 264 
146 157 272 273 
147 161 266 306 
148 56 57 222 
149 301 227 311 
150 79 91 230 
151 93 81 162 
152 97 83 172 
153 96 80 230 
154 58 59 218 
155 271 133 278 
156 76 75 324 
157 5 86 323 
158 142 213 214 
159 77 92 271 
160 20 21 259 
161 10 102 223 
162 203 171 309 
163 224 104 284 
164 276 201 323 
165 130 128 324 
166 161 232 266 
167 113 216 302 
168 93 162 163 
169 97 172 173 
170 142 138 213 
171 207 100 320 
172 155 276 323 
173 233 130 324 
174 205 206 300 
175 100 207 277 
176 115 237 289 
177 232 142 266 
178 212 103 322 
179 14 100 216 
180 217 112 331 
181 269 103 291 
182 99 69 217 
183 216 168 302 
184 169 301 311 
185 200 186 313 
186 294 221 303 
187 88 58 218 
188 201 5 323 
189 128 76 324 
190 237 115 342 
191 247 111 290 
192 13 14 216 
193 10 11 102 
194 285 221 294 
195 251 109 298 
196 59 60 95 
197 14 15 100 
198 64 65 103 
199 72 73 104 
200 109 251 297 
201 1 9 279 
202 68 69 99 
203 64 103 269 
204 90 264 316 
205 256 110 293 
206 16 17 90 
207 69 70 217 
208 138 136 213 
209 104 225 226 
210 148 308 347 
211 6 96 337 
212 162 6 337 
213 8 97 338 
214 181 8 338 
215 12 13 113 
216 224 179 283 
217 223 102 261 
218 9 10 223 
219 70 71 112 
220 57 58 88 
221 110 256 299 
222 62 63 105 
223 111 247 295 
224 98 56 222 
225 185 286 307 
226 315 202 346 
227 21 106 334 
228 16 90 320 
229 112 71 224 
230 105 63 269 
231 18 19 94 
232 55 56 98 
233 143 140 232 
234 239 206 321 
235 88 218 219 
236 74 1 279 
237 82 93 341 
238 172 82 341 
239 222 88 292 
240 310 200 313 
241 96 230 318 
242 140 138 142 
243 215 212 267 
244 228 105 287 
245 209 269 291 
246 231 113 314 
247 60 61 344 
248 308 333 347 
249 320 90 348 
250 192 143 232 
251 62 105 228 
252 264 193 316 
253 233 202 315 
254 189 271 278 
255 104 73 225 
256 106 204 334 
257 164 280 317 
258 103 210 291 
259 71 72 224 
260 67 215 267 
261 114 241 288 
262 99 217 260 
263 221 95 303 
264 214 213 346 
265 73 74 225 
266 100 277 282 
267 145 184 185 
268 115 34 242 
269 240 244 245 
270 100 15 320 
271 68 99 215 
272 67 68 215 
273 116 289 326 
274 238 120 239 
275 115 242 243 
276 40 41 191 
277 21 22 106 
278 61 62 228 
279 105 269 351 
280 24 25 244 
281 204 106 321 
282 234 107 235 
283 23 120 238 
284 12 113 231 
285 42 107 234 
286 25 119 244 
287 260 188 275 
288 191 41 234 
289 260 217 310 
290 34 35 242 
291 54 55 229 
292 33 34 115 
293 167 143 192 
294 215 99 335 
295 11 12 231 
296 228 287 345 
297 19 20 265 
298 131 145 307 
299 120 24 244 
300 244 119 245 
301 118 252 253 
302 118 253 255 
303 118 28 252 
304 17 18 264 
305 119 26 258 
306 255 246 258 
307 112 224 283 
308 118 255 258 
309 218 221 347 
310 28 29 252 
311 117 248 249 
312 255 253 256 
313 246 119 258 
314 310 217 331 
315 245 119 246 
316 117 30 248 
317 239 120 240 
318 245 246 247 
319 250 249 251 
320 248 116 254 
321 41 42 234 
322 117 249 250 
323 249 248 254 
324 23 24 120 
325 52 53 114 
326 239 240 241 
327 236 107 257 
328 31 116 248 
329 25 26 119 
330 31 32 116 
331 29 30 117 
332 27 28 118 
333 29 117 252 
334 30 31 248 
335 252 250 253 
336 22 23 238 
337 235 236 237 
338 117 250 252 
339 50 51 111 
340 43 44 257 
341 48 49 110 
342 42 43 107 
343 46 47 109 
344 44 45 108 
345 123 126 187 
346 26 27 258 
347 44 108 257 
348 107 43 257 
349 206 239 327 
350 240 120 244 
351 235 107 236 
352 199 316 328 
353 243 330 332 
354 106 22 238 
355 27 118 258 
356 270 235 342 
357 289 237 326 
358 179 224 284 
359 142 214 266 
360 292 149 305 
361 232 161 328 
362 270 243 332 
363 243 270 342 
364 245 247 290 
365 219 218 347 
366 124 121 189 
367 268 98 305 
368 178 165 186 
369 98 222 305 
370 234 235 270 
371 53 54 300 
372 261 226 329 
373 241 240 290 
374 103 65 322 
375 156 153 157 
376 222 292 305 
377 157 153 272 
378 33 115 289 
379 20 259 265 
380 38 39 262 
381 135 132 136 
382 37 38 101 
383 95 220 303 
384 36 37 263 
385 82 81 93 
386 79 78 91 
387 86 85 89 
388 83 82 172 
389 80 79 230 
390 77 76 92 
391 84 8 181 
392 75 5 87 
393 81 6 162 
394 8 83 97 
395 6 80 96 
396 255 256 293 
397 273 174 274 
398 136 132 336 
399 238 239 321 
400 213 136 315 
401 90 17 264 
402 116 32 289 
403 52 114 288 
404 241 114 327 
405 168 157 176 
406 256 253 298 
407 251 249 296 
408 250 251 298 
409 111 51 288 
410 137 136 138 
411 174 175 274 
412 55 98 229 
413 236 325 326 
414 50 111 295 
415 110 49 295 
416 46 109 297 
417 108 45 297 
418 228 184 344 
419 48 110 299 
420 109 47 299 
421 93 163 164 
422 163 162 165 
423 97 173 174 
424 231 198 304 
425 325 254 326 
426 167 192 193 
427 166 180 319 
428 283 200 331 
429 186 165 337 
430 145 185 307 
431 205 204 206 
432 188 260 310 
433 94 19 265 
434 247 246 293 
435 285 148 347 
436 87 5 201 
437 89 85 151 
438 92 76 128 
439 91 78 121 
440 176 157 273 
441 164 317 341 
442 257 108 325 
443 104 226 350 
444 184 228 345 
445 7 77 271 
446 225 279 329 
447 101 38 262 
448 191 234 270 
449 139 138 140 
450 259 182 265 
451 35 2 340 
452 187 126 188 
453 37 101 263 
454 316 192 328 
455 194 182 259 
456 3 40 339 
457 195 204 205 
458 175 198 274 
459 269 209 351 
460 9 223 279 
461 221 285 347 
462 131 134 145 
463 154 158 159 
464 149 292 333 
465 166 179 180 
466 240 245 290 
467 170 194 195 
468 170 169 182 
469 141 140 143 
470 150 147 169 
471 175 173 177 
472 124 189 190 
473 92 129 133 
474 89 152 155 
475 91 122 123 
476 87 202 233 
477 145 183 184 
478 159 160 161 
479 146 149 333 
480 197 261 343 
481 178 186 200 
482 266 214 306 
483 63 64 269 
484 156 157 168 
485 195 194 204 
486 127 125 171 
487 135 136 137 
488 150 170 268 
489 144 143 167 
490 210 171 291 
491 196 177 197 
492 170 182 194 
493 225 74 279 
494 315 136 336 
495 127 210 211 
496 123 125 126 
497 199 160 207 
498 141 144 146 
499 112 283 331 
500 175 196 198 
501 51 52 288 
502 230 187 318 
503 87 201 202 
504 91 121 122 
505 89 151 152 
506 92 128 129 
507 206 204 321 
508 137 138 139 
509 32 33 289 
510 202 201 276 
511 129 128 130 
512 152 151 153 
513 122 121 124 
514 242 35 340 
515 154 159 312 
516 146 147 149 
517 227 94 311 
518 170 195 268 
519 246 255 293 
520 213 315 346 
521 108 296 325 
522 279 223 329 
523 39 3 339 
524 65 66 322 
525 280 177 317 
526 166 165 178 
527 115 243 342 
528 249 254 296 
529 318 313 352 
530 49 50 295 
531 253 250 298 
532 45 46 297 
533 2 36 340 
534 40 191 339 
535 47 48 299 
536 207 320 348 
537 114 53 300 
538 137 139 148 
539 154 153 156 
540 131 130 132 
541 139 140 141 
542 159 158 160 
543 145 134 183 
544 211 210 212 
545 274 198 314 
546 163 165 166 
547 174 173 175 
548 134 132 135 
549 167 193 227 
550 124 190 203 
551 150 169 170 
552 160 158 277 
553 169 147 301 
554 175 177 196 
555 141 143 144 
556 203 190 208 
557 88 219 292 
558 161 160 199 
559 184 183 220 
560 123 122 125 
561 184 220 344 
562 180 281 319 
563 127 171 210 
564 15 16 320 
565 94 265 311 
566 153 151 272 
567 203 208 209 
568 126 125 127 
569 146 144 147 
570 129 130 131 
571 152 153 154 
572 166 178 179 
573 333 219 347 
574 149 147 150 
575 131 132 134 
576 154 156 158 
577 176 273 274 
578 261 102 343 
579 190 189 278 
580 180 179 284 
581 226 225 329 
582 197 177 280 
583 260 275 335 
584 188 310 313 
585 89 155 323 
586 87 233 324 
587 281 280 319 
588 237 236 326 
589 239 241 327 
590 263 242 340 
591 207 160 277 
592 243 242 330 
593 168 176 302 
594 171 125 309 
595 182 169 311 
596 135 137 285 
597 127 211 275 
598 61 228 344 
599 174 273 338 
600 186 337 352 
601 193 192 316 
602 150 268 305 
603 187 313 318 
604 197 280 281 
605 188 126 275 
606 198 196 304 
607 173 172 317 
608 191 262 339 
609 141 146 308 
610 292 219 333 
611 106 238 321 
612 286 185 287 
613 236 257 325 
614 102 304 343 
615 277 158 282 
616 187 188 313 
617 137 148 285 
618 302 176 314 
619 254 116 326 
620 190 278 286 
621 126 127 275 
622 178 200 283 
623 156 168 282 
624 177 173 317 
625 208 190 286 
626 167 227 301 
627 204 194 334 
628 208 286 287 
629 144 167 301 
630 242 263 330 
631 124 203 309 
632 158 156 282 
633 179 178 283 
634 265 182 311 
635 159 306 312 
636 155 152 312 
637 149 150 305 
638 235 237 342 
639 262 191 332 
640 135 285 294 
641 280 164 319 
642 134 135 294 
643 192 232 328 
644 176 274 314 
645 130 233 336 
646 267 212 322 
647 183 134 294 
648 276 155 349 
649 122 124 309 
650 191 270 332 
651 147 144 301 
652 86 89 323 
653 75 87 324 
654 220 183 303 
655 281 180 350 
656 148 139 308 
657 152 154 312 
658 296 254 325 
659 155 312 349 
660 275 211 335 
661 139 141 308 
662 93 164 341 
663 284 104 350 
664 125 122 309 
665 165 162 337 
666 97 174 338 
667 316 199 348 
668 185 184 345 
669 313 186 352 
670 183 294 303 
671 262 39 339 
672 66 267 322 
673 36 263 340 
674 99 260 335 
675 161 199 328 
676 208 287 351 
677 263 101 330 
678 304 196 343 
679 101 262 332 
680 132 130 336 
681 194 259 334 
682 113 302 314 
683 223 261 329 
684 306 214 349 
685 330 101 332 
686 287 105 351 
687 196 197 343 
688 200 310 331 
689 199 207 348 
690 312 306 349 
691 202 276 346 
692 180 284 350 
693 276 214 346 
694 233 315 336 
695 226 281 350 
696 209 208 351 
697 308 146 333 
698 287 185 345 
699 317 172 341 
700 214 276 349 
701 90 316 348 
702 96 318 352 
703 337 96 352 
704 227 193 264 
$EndElements
